<svg xmlns="http://www.w3.org/2000/svg" width="1280" height="720" viewBox="0 0 1280 720">
  <defs>
    <style>
      .cls-1 {
        fill-rule: evenodd;
      }
    </style>
  </defs>
  <g id="Artboard_1" data-name="Artboard 1">
    <path id="Circuit_Pattern_1_1" data-name="Circuit Pattern 1 1" class="cls-1" d="M1301.21,566.767L1366,631.551V642l-68.97-66.873h-92.99v33.436H1119.4V575.127H975.2l-42.842,42.84S803.04,618,792,618c0,3.323-6.374,11.461-15.339,11.461-7.906,0-15.681-6.846-15.681-15.693,0-11.258,8.829-15.654,15.681-15.654C786.917,598.114,792,606.138,792,610c5.438,0,136.176-.392,136.176-0.392l42.842-42.841H1119.4V543.78H949.074l-41.8,42.84S781.142,587,750,587c0,4.752-7.854,11.114-15.136,11.114-11.18,0-15.674-9.116-15.674-15.673,0-7.127,5.726-15.674,15.674-15.674C745.6,566.767,750,575.575,750,578c42.1,0,153.1.261,153.1,0.261l42.842-42.841h33.438c29.043,0,140.023,0,140.023,0V512.433h-248.7l-43.887-43.886H651.27c0,4.951-7.178,11.494-14.629,11.494A15.739,15.739,0,0,1,621,464.416c0-8.583,5.674-15.624,15.674-15.624,9.279,0,14.6,7.956,14.6,11.4H780.841l51.2,1.045q21.42,21.417,42.842,42.84H1055.66c18.57,0,63.74,0,63.74,0V469.592h38.66V415.257l38.66-41.8H1366v8.359H1198.81l-32.39,35.527v52.245h37.62v34.481h145.24L1366,520.792v11.494l-19.85-19.853H1204.04V535.42h119.12L1366,579.306v10.449l-45.98-45.975H1204.04v22.987h97.17ZM776.661,603.339a10.449,10.449,0,1,0,10.45,10.449A10.449,10.449,0,0,0,776.661,603.339Zm-41.8-31.347a10.449,10.449,0,1,0,10.45,10.449A10.449,10.449,0,0,0,734.864,571.992ZM636.641,453.918a10.449,10.449,0,1,0,10.449,10.449A10.449,10.449,0,0,0,636.641,453.918Zm562.169,20.9h-74.19V603.339h74.19V474.816Zm-171.37-30.15v-0.442l31.35-16.429v33.436Zm28.22-11.646-21.95,11.494,21.95,11.494V433.02Zm-67.923,11.646v-0.442L1019.08,427.8v33.436Zm28.213-11.646-21.944,11.494,21.944,11.494V433.02Zm-36.573,27.168-31.348-15.674L979.377,427.8v32.392Zm-3.135-28.213L954.3,444.514l8.359,4.18,13.584,7.314V431.975Zm167.188-58.514H958.479c-13.235-13.234-31.7-30.651-44.932-43.886a14.7,14.7,0,0,1-8.36,2.09c-7.614,0-15.187-6.7-15.187-11.665-37.962,0-78.512.171-116.473,0.171,0,4.85-8.2,11.494-13.584,11.494-9.3,0-16.719-7-16.719-15.673A15.77,15.77,0,0,1,758.9,300.318c6.873,0,14.629,5.886,14.629,11.494H869.66c6.617,0,13.723.188,20.34,0.188,0-1.618,2.216-11.682,15.187-11.682,7.715,0,15.674,7.072,15.674,14.629,0,2.435.193,5.7-2.09,8.359,16.223,16.563,29.445,29.444,40.752,40.751L1083.87,365.1h56.43q20.37-19.851,40.75-39.706h47.02c28.41,0,116.52,0,137.93,0v8.359H1184.18Q1163.81,353.606,1143.43,373.461ZM758.9,305.543a10.449,10.449,0,1,0,0,20.9c7.794,0,10.449-7.053,10.449-10.449C769.347,308.692,762.689,305.543,758.9,305.543Zm146.289,0c-3.447,0-10.449,2.842-10.449,10.449a10.708,10.708,0,0,0,10.4,10.566c7.953,0,10.5-7.347,10.5-10.566A10.385,10.385,0,0,0,905.187,305.543ZM1140.3,318.082c1.14,1.14,2.09,2.768,2.09,8.391a15.66,15.66,0,1,1-15.65-15.608c2.61,0,4.98.109,7.29,1.992,7.69-7.958,22.98-24.033,22.98-24.033H1366v8.36H1161.19C1152.97,305.2,1147.05,311.325,1140.3,318.082Zm-13.59-2.09a10.449,10.449,0,1,0,10.45,10.449A10.45,10.45,0,0,0,1126.71,315.992Zm-59.56-31.347c0,14.121-11.9,27.167-27.17,27.167-15.85,0-27.17-10.935-27.17-27.167,0-14.925,11.15-27.168,27.17-27.168C1056.95,257.958,1067.15,271.277,1067.15,284.645Zm-49.11,0c0,10.312,7.3,21.943,21.94,21.943,12.17,0,21.95-11.471,21.95-21.943a22.16,22.16,0,0,0-21.95-21.943C1030,262.7,1017.95,268.357,1018.04,284.645Zm40.75,0c0,3.617-4.18,18.808-18.81,18.808-10.11,0-18.81-7.529-18.81-18.808,0-6.667,4.91-18.808,18.81-18.808C1050.85,265.837,1058.79,275.433,1058.79,284.645Zm-33.44,0c0,6.812,4.88,14.628,14.63,14.628,6.46,0,14.63-6.208,14.63-14.628,0-12.07-11.24-14.629-14.63-14.629C1031.94,270.016,1025.35,275.746,1025.35,284.645ZM1068.2,211.5H893.693c0,4.574-6.924,11.494-14.629,11.494-10.787,0-15.674-8.738-15.674-15.674a15.52,15.52,0,0,1,15.674-15.673c9.715,0,14.629,9.05,14.629,11.494H1023.26l51.21,1.045q20.9,20.9,41.79,41.8H1366v8.359H1112.08Q1090.15,232.925,1068.2,211.5ZM878.019,196.873c-3.447,0-9.4,3.873-9.4,10.449a10.446,10.446,0,0,0,10.449,10.449c5.241,0,10.449-5.324,10.449-10.449C889.513,200.266,883.369,196.873,878.019,196.873Zm211.071-16.718H935.49c0,6.272-9.281,11.494-14.629,11.494a15.674,15.674,0,1,1,0-31.347c6.767,0,14.629,6.668,14.629,11.494h157.78q21.945,21.418,43.89,42.841H1366V223H1132.98Q1111.035,201.578,1089.09,180.155ZM920.861,165.526a10.449,10.449,0,1,0,0,20.9c5.668,0,10.449-4.922,10.449-11.493C931.31,172.322,927.618,165.526,920.861,165.526Zm194.359-16.718H978.332c0,4.186-5.013,12.539-14.629,12.539-9.969,0-15.642-7.787-15.674-15.674A15.459,15.459,0,0,1,963.7,130c6.879,0,14.629,6.422,14.629,10.449H1118.35q21.945,21.418,43.89,42.841H1366v8.359H1158.06ZM963.7,135.224a10.46,10.46,0,0,0-10.449,10.449A10.091,10.091,0,0,0,963.7,156.122c3.616,0,10.449-3.314,10.449-10.449C974.152,139.849,968.307,135.224,963.7,135.224Z" transform="translate(-43 -24)"/>
  </g>
</svg>
