<svg xmlns="http://www.w3.org/2000/svg" width="1000" height="1000" viewBox="0 0 1000 1000">
  <defs>
    <style>
      .cls-1 {
        fill-rule: evenodd;
      }
    </style>
  </defs>
  <path id="Hyperlink_1" data-name="Hyperlink 1" class="cls-1" d="M163.546,693.514C234.132,622.672,343.157,513.9,398.129,458.932c15.063-15.064,28.893-21.062,36.592-23.3,1.865-7.235,9.806-23.095,22.469-35.761L603.6,253.464c71.457-71.465,112.07-131.78,186.286-113.18,16.19,4.057,39.334,14.394,54.841,36.54,20.745,29.628,25.625,65.964,14.068,95.59-13.018,33.374-60.191,71.824-92.343,103.974l-166.37,166.37c-14.314,14.314-21.425,16.1-35.761,22.469-3.183,8.579-8.169,21.461-22.469,35.761L434.539,708.3c-41.711,41.715-95.608,95.608-127.273,127.273-28.7,28.7-93.614,47.8-143.813-2.4C123.69,793.409,132.78,724.281,163.546,693.514Zm31.571,28.243c-10.421,10.421-27.108,49.423,2.441,78.971,25.83,25.831,61.529,23.72,86.036-.787,19.311-19.311,34.171-34.563,57.818-58.331L512.773,570.249c-18.826-2.379-34.76-8.141-54.846-28.227-20.229-20.229-24.241-37.576-29.06-54.015ZM486.265,430.609c9.635,2.532,29.883,3.264,54.847,28.227,23.845,23.846,23.248,42.659,28.227,54.847L799.762,283.26c3.969-3.969,42.549-42.3-3.266-88.115-27.255-27.255-65.485-9.282-70.658-4.109Zm-12.5,44.067c4.187,28.031,26.256,48.886,51.911,51.269C523.337,501.9,499.622,478.043,473.766,474.676Z"/>
</svg>
